<?xml version="1.0" standalone="no"?>
<!DOCTYPE svg PUBLIC "-//W3C//DTD SVG 20010904//EN"
 "http://www.w3.org/TR/2001/REC-SVG-20010904/DTD/svg10.dtd">
<svg version="1.0" xmlns="http://www.w3.org/2000/svg"
 width="512.000000pt" height="512.000000pt" viewBox="0 0 512.000000 512.000000"
 preserveAspectRatio="xMidYMid meet">
<metadata>
Created by potrace 1.11, written by Peter Selinger 2001-2013
</metadata>
<g transform="translate(0.000000,512.000000) scale(0.100000,-0.100000)"
fill="#000000" stroke="none">
<path d="M2855 4849 c-90 -9 -179 -20 -185 -24 -3 -2 -25 -6 -49 -10 -187 -28
-475 -148 -675 -283 -137 -92 -184 -130 -296 -242 -154 -151 -275 -318 -369
-506 -43 -86 -104 -234 -117 -284 -2 -8 -11 -43 -20 -78 -9 -34 -15 -64 -13
-65 11 -8 349 -83 350 -78 3 24 11 54 34 125 136 411 436 750 826 935 213 101
369 138 649 155 l25 1 3 182 2 181 -47 -2 c-27 0 -79 -4 -118 -7z"/>
<path d="M2845 4108 c-397 -66 -704 -283 -897 -636 -31 -56 -85 -192 -98 -249
-8 -31 -6 -33 29 -43 56 -15 298 -70 308 -70 4 0 16 26 26 58 39 120 118 250
207 340 140 142 353 239 536 245 l64 2 0 183 0 183 -62 -2 c-35 -2 -85 -6
-113 -11z"/>
<path d="M2893 3369 c-169 -43 -305 -184 -342 -355 -4 -23 -8 -653 -8 -1403
l-1 -1361 179 0 c99 0 180 3 180 8 1 4 2 477 3 1052 l1 1045 426 1 c234 0 432
3 440 6 11 4 14 38 12 174 -1 93 -2 172 -2 176 -1 4 -198 9 -438 10 l-438 3 1
107 c0 116 10 146 52 174 21 14 86 16 536 18 l511 1 0 183 1 182 -521 -1
c-470 -1 -527 -3 -592 -20z"/>
</g>
</svg>
